<svg viewBox="0 0 120 40" fill="none" xmlns="http://www.w3.org/2000/svg" class="w-10 h-10 flex-shrink-0"><defs><linearGradient id="brand-gradient" x1="0%" y1="0%" x2="100%" y2="100%"><stop offset="0%" style="stop-color: rgb(251, 146, 60); stop-opacity: 1;"></stop><stop offset="100%" style="stop-color: rgb(249, 115, 22); stop-opacity: 1;"></stop></linearGradient></defs><path d="M72.1,34.2c-2.3,1.3-4.9,2-7.7,2c-8.9,0-16.2-7.2-16.2-16.2S55.5,3.8,64.4,3.8c2.8,0,5.4,0.7,7.7,2l-1.9,3.3 c-2-1.1-4.2-1.7-6.5-1.7c-6.1,0-11,4.9-11,11s4.9,11,11,11c2.3,0,4.5-0.6,6.5-1.7L72.1,34.2z" fill="url(#brand-gradient)"></path><path d="M64.4,11.5c-4.6,0-8.4,3.8-8.4,8.4s3.8,8.4,8.4,8.4s8.4-3.8,8.4-8.4S69,11.5,64.4,11.5z M64.4,25.3 c-2.9,0-5.3-2.4-5.3-5.3s2.4-5.3,5.3-5.3s5.3,2.4,5.3,5.3S67.3,25.3,64.4,25.3z" fill="url(#brand-gradient)"></path><text x="0" y="30" font-family="Arial, sans-serif" font-size="24" font-weight="bold" fill="url(#brand-gradient)">The</text><text x="78" y="30" font-family="Arial, sans-serif" font-size="24" font-weight="bold" fill="url(#brand-gradient)">rand</text></svg>